<svg width="141" height="184" viewBox="0 0 141 184" fill="none" xmlns="http://www.w3.org/2000/svg">
<path d="M59.6592 142.195C60.5392 142.195 61.3112 142.367 61.9752 142.711C62.6472 143.055 63.1632 143.547 63.5232 144.187C63.8912 144.819 64.0752 145.555 64.0752 146.395C64.0752 147.235 63.8912 147.971 63.5232 148.603C63.1632 149.227 62.6472 149.711 61.9752 150.055C61.3112 150.399 60.5392 150.571 59.6592 150.571H56.7312V142.195H59.6592ZM59.5992 149.143C60.4792 149.143 61.1592 148.903 61.6392 148.423C62.1192 147.943 62.3592 147.267 62.3592 146.395C62.3592 145.523 62.1192 144.843 61.6392 144.355C61.1592 143.859 60.4792 143.611 59.5992 143.611H58.4112V149.143H59.5992ZM64.9007 147.223C64.9007 146.551 65.0327 145.955 65.2967 145.435C65.5687 144.915 65.9327 144.515 66.3887 144.235C66.8527 143.955 67.3687 143.815 67.9367 143.815C68.4327 143.815 68.8647 143.915 69.2327 144.115C69.6087 144.315 69.9087 144.567 70.1327 144.871V143.923H71.8247V150.571H70.1327V149.599C69.9167 149.911 69.6167 150.171 69.2327 150.379C68.8567 150.579 68.4207 150.679 67.9247 150.679C67.3647 150.679 66.8527 150.535 66.3887 150.247C65.9327 149.959 65.5687 149.555 65.2967 149.035C65.0327 148.507 64.9007 147.903 64.9007 147.223ZM70.1327 147.247C70.1327 146.839 70.0527 146.491 69.8927 146.203C69.7327 145.907 69.5167 145.683 69.2447 145.531C68.9727 145.371 68.6807 145.291 68.3687 145.291C68.0567 145.291 67.7687 145.367 67.5047 145.519C67.2407 145.671 67.0247 145.895 66.8567 146.191C66.6967 146.479 66.6167 146.823 66.6167 147.223C66.6167 147.623 66.6967 147.975 66.8567 148.279C67.0247 148.575 67.2407 148.803 67.5047 148.963C67.7767 149.123 68.0647 149.203 68.3687 149.203C68.6807 149.203 68.9727 149.127 69.2447 148.975C69.5167 148.815 69.7327 148.591 69.8927 148.303C70.0527 148.007 70.1327 147.655 70.1327 147.247ZM74.3176 143.131C74.0216 143.131 73.7736 143.039 73.5736 142.855C73.3816 142.663 73.2856 142.427 73.2856 142.147C73.2856 141.867 73.3816 141.635 73.5736 141.451C73.7736 141.259 74.0216 141.163 74.3176 141.163C74.6136 141.163 74.8576 141.259 75.0496 141.451C75.2496 141.635 75.3496 141.867 75.3496 142.147C75.3496 142.427 75.2496 142.663 75.0496 142.855C74.8576 143.039 74.6136 143.131 74.3176 143.131ZM75.1456 143.923V150.571H73.4656V143.923H75.1456ZM78.4854 144.955C78.7014 144.603 78.9814 144.327 79.3254 144.127C79.6774 143.927 80.0774 143.827 80.5254 143.827V145.591H80.0814C79.5534 145.591 79.1534 145.715 78.8814 145.963C78.6174 146.211 78.4854 146.643 78.4854 147.259V150.571H76.8054V143.923H78.4854V144.955ZM88.017 143.923L83.901 153.715H82.113L83.553 150.403L80.889 143.923H82.773L84.489 148.567L86.229 143.923H88.017Z" fill="#212121"/>
<ellipse cx="70.5379" cy="62.7687" rx="70.1282" ry="61.9053" fill="white"/>
<g clip-path="url(#clip0_492_2031)">
<path d="M58.7892 40.3811L59.118 40.502H85.25L85.6335 40.3811L87.4858 36.7336C87.6783 36.3546 87.4051 35.9183 86.939 35.8608L54.2593 31.8222C53.8343 31.7697 53.4547 32.061 53.4547 32.4399V35.4139C53.4547 35.5793 53.5291 35.7379 53.6617 35.855L58.7892 40.3811Z" fill="#99E6FC"/>
<path d="M58.7892 40.3811L59.118 40.502H64.9664L64.6377 40.3811L59.5102 35.8548C59.3778 35.7379 59.3033 35.5792 59.3033 35.4138V32.4455L54.2594 31.822C53.8344 31.7696 53.4548 32.0608 53.4548 32.4398V35.4138C53.4548 35.5792 53.5292 35.7378 53.6618 35.8548L58.7892 40.3811Z" fill="#62DBFB"/>
<path d="M94.0835 46.1534H85.4965V50.7104H94.0835C95.971 50.7104 97.5069 52.0662 97.5069 53.7324V69.2585C97.5069 70.7897 96.2098 72.0576 94.5348 72.2534C94.7022 73.46 94.7887 74.6868 94.7887 75.9261C94.7887 76.2221 94.7823 76.5169 94.7727 76.811C99.1919 76.5008 102.669 73.2393 102.669 69.2585V53.7324C102.669 49.5467 98.8252 46.1534 94.0835 46.1534Z" fill="#99E6FC"/>
<path d="M88.7079 59.012C86.7109 56.727 85.6336 53.92 85.6336 51.034V40.3811H58.7893V51.034C58.7893 53.0441 58.2654 55.0153 57.2735 56.7991C57.7905 56.41 58.4392 56.1964 59.1258 56.1964C59.8904 56.1964 60.6092 56.4592 61.1497 56.9364C61.6903 57.4137 61.9881 58.0482 61.9881 58.723C61.9881 59.3978 61.6903 60.0324 61.1497 60.5095L56.2822 64.8063H61.1037C61.3083 64.8063 61.5042 64.8833 61.6411 65.0175C61.7782 65.1517 61.8445 65.3317 61.8233 65.5114L58.4939 93.6005L58.6171 93.7214H87.8999C92.2289 89.2406 94.9258 82.9247 94.9258 75.9261C94.9258 69.3743 92.5618 63.4214 88.7079 59.012Z" fill="#C8EFFE"/>
<path d="M58.9949 89.3728L58.4938 93.6005L58.617 93.7214H62.331C61.0718 92.418 59.9518 90.9584 58.9949 89.3728Z" fill="#99E6FC"/>
<path d="M58.7893 40.3811V51.034C58.7893 53.0441 58.2654 55.0153 57.2734 56.7991C57.7905 56.41 58.4392 56.1963 59.1258 56.1963C59.8904 56.1963 60.6092 56.4592 61.1497 56.9364C61.6208 57.3522 61.9071 57.8876 61.973 58.4651C63.6802 56.2862 64.5973 53.6941 64.5973 51.0341V40.3811H58.7893Z" fill="#99E6FC"/>
<path d="M85.9149 60.9142C83.593 58.2575 82.2572 54.9764 82.1182 51.617C82.1047 51.2918 81.8037 51.034 81.435 51.034H62.988C62.6192 51.034 62.3183 51.2918 62.3049 51.617C62.2302 53.4212 61.8073 55.2019 61.0748 56.8763C61.0994 56.8966 61.1257 56.9151 61.1497 56.9364C61.6903 57.4136 61.9881 58.0482 61.9881 58.723C61.9881 59.3978 61.6903 60.0324 61.1497 60.5095L56.2822 64.8063H61.1037C61.3083 64.8063 61.5042 64.8833 61.6411 65.0175C61.7782 65.1517 61.8445 65.3317 61.8233 65.5114L58.8486 90.6074H85.8484C86.0682 90.6074 86.2763 90.5154 86.4041 90.3575C89.5956 86.4172 91.3982 81.255 91.3982 75.9261C91.3984 70.2912 89.4511 64.9598 85.9149 60.9142Z" fill="#FFD15B"/>
<path d="M58.8486 90.6073H64.0326C62.1075 88.3047 60.6677 85.5653 59.7967 82.609L58.8486 90.6073Z" fill="#FFC344"/>
<path d="M62.988 51.034C62.6192 51.034 62.3183 51.2918 62.3049 51.617C62.2302 53.4212 61.8073 55.2018 61.0748 56.8763C61.0994 56.8966 61.1257 56.9151 61.1497 56.9364C61.6903 57.4136 61.9881 58.0482 61.9881 58.723C61.9881 59.3977 61.6903 60.0324 61.1497 60.5095L56.2822 64.8062H61.1037C61.2627 64.8062 61.4158 64.8532 61.5407 64.9368C62.3123 63.4956 63.2401 62.145 64.3159 60.9142C66.7723 58.1039 68.125 54.595 68.125 51.034H62.988Z" fill="#FFC344"/>
<path d="M42.905 64.8063H56.4758L61.2466 60.595C62.4178 59.5611 62.4178 57.8847 61.2466 56.8508C60.0753 55.8169 58.1763 55.8169 57.005 56.8508L52.5972 60.7418C50.9918 62.1589 48.3891 62.1589 46.7837 60.7418L44.7819 58.9747C43.6107 57.9408 41.7116 57.9408 40.5404 58.9747C39.3692 60.0086 39.3692 61.685 40.5404 62.7189L42.905 64.8063Z" fill="#FFD15B"/>
<path d="M42.9051 64.8064H47.3671L45.0023 62.7189C43.8684 61.7179 43.8356 60.1163 44.8977 59.077L44.7818 58.9747C43.6106 57.9408 41.7115 57.9408 40.5403 58.9747C39.3691 60.0086 39.3691 61.685 40.5403 62.7189L42.9051 64.8064Z" fill="#FFC344"/>
<path d="M58.6172 93.7213H42.5285C42.0881 93.7213 41.7187 93.4276 41.6728 93.0409L38.4113 65.5239C38.3581 65.0756 38.7564 64.6854 39.267 64.6854H61.1037C61.6144 64.6854 62.0125 65.0757 61.9595 65.5239L58.6172 93.7213Z" fill="#C8EFFE"/>
<path d="M47.5656 93.0409L47.2879 90.6986H45.4549C45.1042 90.6986 44.8102 90.4648 44.7737 90.1569L42.192 68.3756C42.1497 68.0188 42.4668 67.7081 42.8732 67.7081H44.5629L44.3041 65.5239C44.2509 65.0756 44.6492 64.6854 45.1599 64.6854H39.2669C38.7563 64.6854 38.3581 65.0757 38.4111 65.5239L41.6726 93.0409C41.7185 93.4276 42.0878 93.7213 42.5283 93.7213H48.4211C47.9809 93.7213 47.6115 93.4276 47.5656 93.0409Z" fill="#99E6FC"/>
<path d="M50.0642 57.6617C51.5372 57.6617 52.7314 56.6076 52.7314 55.3073C52.7314 54.0069 51.5372 52.9528 50.0642 52.9528C48.5911 52.9528 47.397 54.0069 47.397 55.3073C47.397 56.6076 48.5911 57.6617 50.0642 57.6617Z" fill="#FFD15B"/>
<path d="M49.8232 55.3073C49.8232 54.393 50.4148 53.6022 51.2773 53.2122C50.9131 53.0475 50.5015 52.9528 50.0642 52.9528C48.5911 52.9528 47.397 54.0069 47.397 55.3073C47.397 56.6077 48.5911 57.6617 50.0642 57.6617C50.5015 57.6617 50.9131 57.5671 51.2773 57.4024C50.4148 57.0123 49.8232 56.2216 49.8232 55.3073Z" fill="#FFC344"/>
<path d="M42.1057 53.8005C43.0798 53.8005 43.8694 53.1034 43.8694 52.2435C43.8694 51.3837 43.0798 50.6866 42.1057 50.6866C41.1316 50.6866 40.3419 51.3837 40.3419 52.2435C40.3419 53.1034 41.1316 53.8005 42.1057 53.8005Z" fill="#FFD15B"/>
<path d="M41.8939 52.2435C41.8939 51.6298 42.2972 51.1006 42.8816 50.847C42.6471 50.7453 42.3844 50.6866 42.1055 50.6866C41.1314 50.6866 40.3418 51.3836 40.3418 52.2435C40.3418 53.1034 41.1314 53.8005 42.1055 53.8005C42.3844 53.8005 42.6471 53.7418 42.8816 53.64C42.2972 53.3865 41.8939 52.8571 41.8939 52.2435Z" fill="#FFC344"/>
<path d="M44.7739 90.1569L42.192 68.3755C42.1497 68.0187 42.4668 67.7081 42.8732 67.7081H57.4972C57.9036 67.7081 58.2207 68.0187 58.1784 68.3755L55.5968 90.1569C55.5604 90.4648 55.2663 90.6986 54.9156 90.6986H45.4549C45.1043 90.6986 44.8103 90.4648 44.7739 90.1569Z" fill="#FFD15B"/>
<path d="M49.0484 90.1569L46.4666 68.3755C46.4242 68.0187 46.7413 67.7081 47.1477 67.7081H42.8732C42.4668 67.7081 42.1497 68.0187 42.192 68.3755L44.7738 90.1569C44.8102 90.4648 45.1043 90.6986 45.4549 90.6986H49.7294C49.3788 90.6986 49.0849 90.4648 49.0484 90.1569Z" fill="#FFC344"/>
</g>
<defs>
<clipPath id="clip0_492_2031">
<rect width="70.1282" height="61.9053" fill="white" transform="translate(35.4739 31.816)"/>
</clipPath>
</defs>
</svg>
