<svg width="141" height="184" viewBox="0 0 141 184" fill="none" xmlns="http://www.w3.org/2000/svg">
<path d="M66.2062 142.195V143.551H62.7142V145.699H65.3902V147.031H62.7142V150.571H61.0342V142.195H66.2062ZM68.2495 143.131C67.9535 143.131 67.7055 143.039 67.5055 142.855C67.3135 142.663 67.2175 142.427 67.2175 142.147C67.2175 141.867 67.3135 141.635 67.5055 141.451C67.7055 141.259 67.9535 141.163 68.2495 141.163C68.5455 141.163 68.7895 141.259 68.9815 141.451C69.1815 141.635 69.2815 141.867 69.2815 142.147C69.2815 142.427 69.1815 142.663 68.9815 142.855C68.7895 143.039 68.5455 143.131 68.2495 143.131ZM69.0775 143.923V150.571H67.3975V143.923H69.0775ZM73.2814 150.679C72.7374 150.679 72.2494 150.583 71.8174 150.391C71.3854 150.191 71.0414 149.923 70.7854 149.587C70.5374 149.251 70.4014 148.879 70.3774 148.471H72.0694C72.1014 148.727 72.2254 148.939 72.4414 149.107C72.6654 149.275 72.9414 149.359 73.2694 149.359C73.5894 149.359 73.8374 149.295 74.0134 149.167C74.1974 149.039 74.2894 148.875 74.2894 148.675C74.2894 148.459 74.1774 148.299 73.9534 148.195C73.7374 148.083 73.3894 147.963 72.9094 147.835C72.4134 147.715 72.0054 147.591 71.6854 147.463C71.3734 147.335 71.1014 147.139 70.8694 146.875C70.6454 146.611 70.5334 146.255 70.5334 145.807C70.5334 145.439 70.6374 145.103 70.8454 144.799C71.0614 144.495 71.3654 144.255 71.7574 144.079C72.1574 143.903 72.6254 143.815 73.1614 143.815C73.9534 143.815 74.5854 144.015 75.0574 144.415C75.5294 144.807 75.7894 145.339 75.8374 146.011H74.2294C74.2054 145.747 74.0934 145.539 73.8934 145.387C73.7014 145.227 73.4414 145.147 73.1134 145.147C72.8094 145.147 72.5734 145.203 72.4054 145.315C72.2454 145.427 72.1654 145.583 72.1654 145.783C72.1654 146.007 72.2774 146.179 72.5014 146.299C72.7254 146.411 73.0734 146.527 73.5454 146.647C74.0254 146.767 74.4214 146.891 74.7334 147.019C75.0454 147.147 75.3134 147.347 75.5374 147.619C75.7694 147.883 75.8894 148.235 75.8974 148.675C75.8974 149.059 75.7894 149.403 75.5734 149.707C75.3654 150.011 75.0614 150.251 74.6614 150.427C74.2694 150.595 73.8094 150.679 73.2814 150.679ZM81.0204 143.827C81.5244 143.827 81.9724 143.939 82.3644 144.163C82.7564 144.379 83.0604 144.703 83.2764 145.135C83.5004 145.559 83.6124 146.071 83.6124 146.671V150.571H81.9324V146.899C81.9324 146.371 81.8004 145.967 81.5364 145.687C81.2724 145.399 80.9124 145.255 80.4564 145.255C79.9924 145.255 79.6244 145.399 79.3524 145.687C79.0884 145.967 78.9564 146.371 78.9564 146.899V150.571H77.2764V141.691H78.9564V144.751C79.1724 144.463 79.4604 144.239 79.8204 144.079C80.1804 143.911 80.5804 143.827 81.0204 143.827Z" fill="#212121"/>
<ellipse cx="70.833" cy="62.7687" rx="70.1282" ry="61.9053" fill="white"/>
<g clip-path="url(#clip0_492_2118)">
<path d="M96.5885 86.6676L92.2182 92.8634C91.1878 94.3244 88.6477 93.8183 88.428 92.1082L86.4272 76.5345L104.07 78.3007C106.007 78.4946 106.58 80.7369 104.925 81.6465L97.9062 85.5043C97.3721 85.7979 96.9212 86.1959 96.5885 86.6676Z" fill="#44A5FF"/>
<path d="M87.5635 85.3793C90.116 85.6051 92.6399 85.2869 94.4911 83.6528C96.3422 82.0188 96.7026 79.7908 96.4468 77.5376L86.4274 76.5345L87.5635 85.3793Z" fill="#377BFE"/>
<path d="M61.2535 35.9728L72.5992 36.7643C73.3879 36.8193 74.1353 37.0977 74.7305 37.5578L82.7182 43.7353C83.6172 44.4305 83.25 45.7319 82.0865 45.9735L72.5622 47.9518L59.4381 37.8021L61.2535 35.9728Z" fill="#44A5FF"/>
<path d="M76.6725 50.5896L85.309 51.6787C86.2908 51.8026 87.1638 52.2956 87.7025 53.0306L92.008 58.9044C92.6261 59.7476 91.8791 60.8503 90.745 60.7686L81.6422 60.1126L74.8542 52.1945L76.6725 50.5896Z" fill="#44A5FF"/>
<path d="M57.036 67.9237L58.2698 75.5475C58.4101 76.4142 58.9686 77.1848 59.8013 77.6604L66.4552 81.461C67.4105 82.0067 68.6596 81.3472 68.567 80.3461L67.824 72.3106L58.8541 66.3187L57.036 67.9237Z" fill="#377BFE"/>
<path d="M66.8544 39.9966C57.4822 31.7232 45.0003 29.328 38.9753 34.6465C34.8846 38.2575 34.8235 44.4961 38.1384 50.7191L50.8235 47.6022C52.1906 47.2663 53.6568 47.6063 54.6601 48.4921L57.9111 51.362C59.9623 53.1726 62.4907 54.5053 65.2694 55.2403C68.8661 56.1916 72.0213 58.138 74.2698 60.7924L91.097 80.6568C94.7919 77.3953 81.1852 52.647 66.8544 39.9966Z" fill="#77CEFF"/>
<path d="M76.6508 63.603L91.097 80.6567C93.1322 78.8601 89.9173 70.5435 84.2238 61.3209C81.8853 62.2201 79.3473 62.9873 76.6508 63.603Z" fill="#5BB0FF"/>
<path d="M65.2694 55.2403C62.4907 54.5053 59.9623 53.1727 57.9112 51.3621L54.6601 48.4922C53.6566 47.6064 52.1905 47.2664 50.8234 47.6023L38.1383 50.7192C39.7058 53.6616 42.027 56.6007 45.0358 59.2567C59.3666 71.9071 87.4021 83.9183 91.097 80.6568L74.2698 60.7925C72.0213 58.138 68.8661 56.1918 65.2694 55.2403Z" fill="#CEF3FB"/>
<path d="M76.6508 63.603C71.7997 64.7108 66.436 65.3271 60.7937 65.3271C57.8649 65.3271 55.0119 65.16 52.2656 64.8456C67.2151 75.1607 87.9554 83.4301 91.097 80.6568L76.6508 63.603Z" fill="#AEE8FA"/>
<path d="M51.8429 47.3518C51.6862 46.8546 51.1033 46.5644 50.5395 46.7022L37.7026 49.8563C37.8414 50.1438 37.9849 50.4314 38.1382 50.7192C38.2895 51.0035 38.4502 51.2876 38.6157 51.5715L51.1071 48.5023C51.6702 48.3638 51.9996 47.8488 51.8429 47.3518Z" fill="#377BFE"/>
<path d="M41.0902 37.8347L41.2357 40.4037C41.264 40.903 41.7315 41.2911 42.2917 41.2911C42.3095 41.2911 42.3275 41.2908 42.3454 41.2899C42.9292 41.2643 43.3787 40.8256 43.3495 40.3102L43.1837 37.3818C43.1705 37.1506 43.0605 36.9318 42.8749 36.7679L39.7641 34.0217C39.4907 34.217 39.2269 34.4245 38.9753 34.6466C38.7237 34.8687 38.4878 35.1008 38.2666 35.3422L41.0902 37.8347Z" fill="#44A5FF"/>
<path d="M55.2191 46.585C55.094 46.585 54.9666 46.5653 54.8426 46.5236C54.2965 46.3399 54.0223 45.8002 54.2304 45.318L56.5319 39.985C56.7401 39.5028 57.3512 39.2608 57.8976 39.4445C58.4437 39.6282 58.7179 40.1679 58.5098 40.6501L56.2083 45.9831C56.0474 46.3559 55.6455 46.585 55.2191 46.585Z" fill="#377BFE"/>
<path d="M60.9941 46.8233L52.1027 43.6089C51.7869 43.4948 51.4244 43.5591 51.1832 43.772L49.313 45.423C49.0718 45.636 48.9989 45.956 49.1282 46.2347L52.7696 54.0836C53.4147 55.4743 55.4559 55.8364 56.6597 54.7739L61.7762 50.2573C62.9799 49.1948 62.5695 47.3928 60.9941 46.8233Z" fill="#44A5FF"/>
</g>
<defs>
<clipPath id="clip0_492_2118">
<rect width="70.1282" height="61.9053" fill="white" transform="translate(35.769 31.816)"/>
</clipPath>
</defs>
</svg>
