<svg width="141" height="184" viewBox="0 0 141 184" fill="none" xmlns="http://www.w3.org/2000/svg">
<path d="M66.6143 142.195V150.571H64.9343V145.123L62.6903 150.571H61.4183L59.1623 145.123V150.571H57.4823V142.195H59.3903L62.0543 148.423L64.7183 142.195H66.6143ZM74.4552 147.103C74.4552 147.343 74.4392 147.559 74.4072 147.751H69.5472C69.5872 148.231 69.7552 148.607 70.0512 148.879C70.3472 149.151 70.7112 149.287 71.1432 149.287C71.7672 149.287 72.2112 149.019 72.4752 148.483H74.2872C74.0952 149.123 73.7272 149.651 73.1832 150.067C72.6392 150.475 71.9712 150.679 71.1792 150.679C70.5392 150.679 69.9632 150.539 69.4512 150.259C68.9472 149.971 68.5512 149.567 68.2632 149.047C67.9832 148.527 67.8432 147.927 67.8432 147.247C67.8432 146.559 67.9832 145.955 68.2632 145.435C68.5432 144.915 68.9352 144.515 69.4392 144.235C69.9432 143.955 70.5232 143.815 71.1792 143.815C71.8112 143.815 72.3752 143.951 72.8712 144.223C73.3752 144.495 73.7632 144.883 74.0352 145.387C74.3152 145.883 74.4552 146.455 74.4552 147.103ZM72.7152 146.623C72.7072 146.191 72.5512 145.847 72.2472 145.591C71.9432 145.327 71.5712 145.195 71.1312 145.195C70.7152 145.195 70.3632 145.323 70.0752 145.579C69.7952 145.827 69.6232 146.175 69.5592 146.623H72.7152ZM75.2495 147.223C75.2495 146.551 75.3815 145.955 75.6455 145.435C75.9175 144.915 76.2815 144.515 76.7375 144.235C77.2015 143.955 77.7175 143.815 78.2855 143.815C78.7815 143.815 79.2135 143.915 79.5815 144.115C79.9575 144.315 80.2575 144.567 80.4815 144.871V143.923H82.1735V150.571H80.4815V149.599C80.2655 149.911 79.9655 150.171 79.5815 150.379C79.2055 150.579 78.7695 150.679 78.2735 150.679C77.7135 150.679 77.2015 150.535 76.7375 150.247C76.2815 149.959 75.9175 149.555 75.6455 149.035C75.3815 148.507 75.2495 147.903 75.2495 147.223ZM80.4815 147.247C80.4815 146.839 80.4015 146.491 80.2415 146.203C80.0815 145.907 79.8655 145.683 79.5935 145.531C79.3215 145.371 79.0295 145.291 78.7175 145.291C78.4055 145.291 78.1175 145.367 77.8535 145.519C77.5895 145.671 77.3735 145.895 77.2055 146.191C77.0455 146.479 76.9655 146.823 76.9655 147.223C76.9655 147.623 77.0455 147.975 77.2055 148.279C77.3735 148.575 77.5895 148.803 77.8535 148.963C78.1255 149.123 78.4135 149.203 78.7175 149.203C79.0295 149.203 79.3215 149.127 79.5935 148.975C79.8655 148.815 80.0815 148.591 80.2415 148.303C80.4015 148.007 80.4815 147.655 80.4815 147.247ZM85.7703 145.303V148.519C85.7703 148.743 85.8223 148.907 85.9263 149.011C86.0383 149.107 86.2223 149.155 86.4783 149.155H87.2583V150.571H86.2023C84.7863 150.571 84.0783 149.883 84.0783 148.507V145.303H83.2863V143.923H84.0783V142.279H85.7703V143.923H87.2583V145.303H85.7703Z" fill="#212121"/>
<ellipse cx="70.6854" cy="62.7687" rx="70.1282" ry="61.9053" fill="white"/>
<g clip-path="url(#clip0_492_2091)">
<path d="M61.3835 88.0865C63.9522 88.0865 66.0344 89.9247 66.0344 92.1921V92.7949C66.0344 93.4828 65.2145 93.93 64.5176 93.6224L61.8522 92.446C61.5571 92.3158 61.2098 92.3158 60.9148 92.446L58.2493 93.6224C57.5524 93.93 56.7325 93.4827 56.7325 92.7949V92.1921C56.7325 89.9247 58.8149 88.0865 61.3835 88.0865Z" fill="#E41F2D"/>
<path d="M79.9873 88.0865C82.5561 88.0865 84.6383 89.9247 84.6383 92.1921V92.7949C84.6383 93.4828 83.8184 93.93 83.1215 93.6224L80.4561 92.446C80.161 92.3158 79.8137 92.3158 79.5186 92.446L76.8532 93.6224C76.1563 93.93 75.3364 93.4827 75.3364 92.7949V92.1921C75.3363 89.9247 77.4186 88.0865 79.9873 88.0865Z" fill="#E41F2D"/>
<path d="M61.3835 37.4038C58.8147 37.4038 56.7325 35.5656 56.7325 33.2982V32.7424C56.7325 32.0545 57.5524 31.6073 58.2493 31.9149L60.9148 33.0913C61.2098 33.2215 61.5571 33.2215 61.8522 33.0913L64.5176 31.9149C65.2145 31.6073 66.0344 32.0546 66.0344 32.7424V33.2982C66.0345 35.5656 63.9522 37.4038 61.3835 37.4038Z" fill="#E41F2D"/>
<path d="M79.9873 37.4038C77.4186 37.4038 75.3364 35.5656 75.3364 33.2982V32.7424C75.3364 32.0545 76.1563 31.6073 76.8532 31.9149L79.5186 33.0913C79.8137 33.2215 80.161 33.2215 80.4561 33.0913L83.1215 31.9149C83.8184 31.6073 84.6383 32.0546 84.6383 32.7424V33.2982C84.6383 35.5656 82.5559 37.4038 79.9873 37.4038Z" fill="#E41F2D"/>
<path d="M61.3835 89.4082C56.2462 89.4082 52.0815 85.7319 52.0815 81.1969V79.1971L53.4512 76.9552L52.0815 75.0995V66.8802L53.4512 64.718L52.0815 62.7826V54.5634L53.4512 52.4914L52.0815 50.4658V44.2934C52.0815 39.7584 56.2462 36.0821 61.3835 36.0821C66.5208 36.0821 70.6855 39.7584 70.6855 44.2934V81.1971C70.6855 85.7319 66.5208 89.4082 61.3835 89.4082Z" fill="#FD4755"/>
<path d="M58.0708 81.1969V44.2933C58.0708 40.6832 60.71 37.6172 64.3781 36.5169C63.4383 36.235 62.4312 36.0821 61.3835 36.0821C56.2462 36.0821 52.0815 39.7584 52.0815 44.2934V50.4658L53.4512 52.4914L52.0815 54.5634V62.7826L53.4512 64.718L52.0815 66.8802V75.0995L53.4512 76.9552L52.0815 79.1971V81.1969C52.0815 85.7319 56.2462 89.4082 61.3835 89.4082C62.4312 89.4082 63.4384 89.2553 64.3781 88.9734C60.71 87.873 58.0708 84.807 58.0708 81.1969Z" fill="#EF253D"/>
<path d="M79.9875 89.4082C74.8502 89.4082 70.6855 85.7318 70.6855 81.1969V79.1971L72.0552 77.1164L70.6855 75.0994V66.8801L72.0552 64.7767L70.6855 62.7825V54.5632L72.0552 52.4106L70.6855 50.4655V44.2931C70.6855 39.7582 74.8502 36.0818 79.9875 36.0818C85.1248 36.0818 89.2895 39.7582 89.2895 44.2931V81.1968C89.2895 85.7318 85.1248 89.4082 79.9875 89.4082Z" fill="#FD4755"/>
<path d="M76.6748 81.1969V44.2933C76.6748 40.6832 79.3141 37.6172 82.9821 36.5169C82.0423 36.235 81.0352 36.0821 79.9875 36.0821C74.8502 36.0821 70.6855 39.7584 70.6855 44.2934V81.1971C70.6855 85.732 74.8502 89.4083 79.9875 89.4083C81.0352 89.4083 82.0425 89.2554 82.9821 88.9736C79.3141 87.873 76.6748 84.807 76.6748 81.1969Z" fill="#EF253D"/>
<path d="M62.3553 50.9323L52.0817 54.5634V50.4658L60.7536 47.4007C62.169 46.9004 63.7091 47.8207 63.7091 49.1665C63.709 49.9439 63.1729 50.6432 62.3553 50.9323Z" fill="#E41F2D"/>
<path d="M62.3553 63.2491L52.0817 66.8803V62.7827L60.7536 59.7176C62.169 59.2173 63.7091 60.1376 63.7091 61.4834C63.709 62.261 63.1729 62.9602 62.3553 63.2491Z" fill="#E41F2D"/>
<path d="M62.3553 75.566L52.0817 79.1971V75.0995L60.7536 72.0345C62.169 71.5342 63.7091 72.4544 63.7091 73.8002C63.709 74.5778 63.1729 75.277 62.3553 75.566Z" fill="#E41F2D"/>
<path d="M58.0708 48.3489L52.0815 50.4658V54.5634L58.0708 52.4465V48.3489Z" fill="#C41926"/>
<path d="M58.0708 60.6658L52.0815 62.7826V66.8802L58.0708 64.7634V60.6658Z" fill="#C41926"/>
<path d="M58.0708 72.9827L52.0815 75.0995V79.1971L58.0708 77.0803V72.9827Z" fill="#C41926"/>
<path d="M80.9592 50.9323L70.6855 54.5634V50.4658L79.3575 47.4007C80.7729 46.9004 82.313 47.8207 82.313 49.1665C82.313 49.9439 81.7769 50.6432 80.9592 50.9323Z" fill="#E41F2D"/>
<path d="M80.9592 63.2491L70.6855 66.8803V62.7827L79.3575 59.7176C80.7729 59.2173 82.313 60.1376 82.313 61.4834C82.313 62.261 81.7769 62.9602 80.9592 63.2491Z" fill="#E41F2D"/>
<path d="M80.9592 75.566L70.6855 79.1971V75.0995L79.3575 72.0345C80.7729 71.5342 82.313 72.4544 82.313 73.8002C82.313 74.5778 81.7769 75.277 80.9592 75.566Z" fill="#E41F2D"/>
<path d="M76.6748 48.3489L70.6855 50.4658V54.5634L76.6748 52.4465V48.3489Z" fill="#C41926"/>
<path d="M76.6748 60.6658L70.6855 62.7826V66.8802L76.6748 64.7634V60.6658Z" fill="#C41926"/>
<path d="M76.6748 72.9827L70.6855 75.0995V79.1971L76.6748 77.0803V72.9827Z" fill="#C41926"/>
</g>
<defs>
<clipPath id="clip0_492_2091">
<rect width="70.1282" height="61.9053" fill="white" transform="translate(35.6215 31.816)"/>
</clipPath>
</defs>
</svg>
